<svg xmlns="http://www.w3.org/2000/svg" version="1.1" xmlns:xlink="http://www.w3.org/1999/xlink" xmlns:svgjs="http://svgjs.dev/svgjs" width="1000" height="1000" viewBox="0 0 1000 1000"><rect width="1000" height="1000" fill="#000000"></rect><g transform="matrix(0.7,0,0,0.7,150.0639956835783,248.90348237864592)"><svg viewBox="0 0 344 247" data-background-color="#ffffff" preserveAspectRatio="xMidYMid meet" height="718" width="1000" xmlns="http://www.w3.org/2000/svg" xmlns:xlink="http://www.w3.org/1999/xlink"><defs></defs><g id="tight-bounds" transform="matrix(1,0,0,1,-0.03144921213416296,-0.10000029352474371)"><svg viewBox="0 0 344.06289104136505 247.2" height="247.2" width="344.06289104136505"><g><svg viewBox="0 0 395.52000000000004 284.17055877219053" height="247.2" width="344.06289104136505"><g transform="matrix(1,0,0,1,0,172.5383749320224)"><svg viewBox="0 0 395.52000000000004 111.63218384016812" height="111.63218384016812" width="395.52000000000004"><g><svg viewBox="0 0 395.52000000000004 111.63218384016812" height="111.63218384016812" width="395.52000000000004"><g><svg viewBox="0 0 395.52000000000004 77.35939640162508" height="77.35939640162508" width="395.52000000000004"><g transform="matrix(1,0,0,1,0,0)"><svg width="395.52000000000004" viewBox="1.2000000476837158 -33.099998474121094 172.29000854492188 33.69999694824219" height="77.35939640162508" data-palette-color="#a437db"><path d="M18.4 0L9.8 0 9.8-25.3 1.2-25.3 1.2-32.5 27-32.5 27-25.3 18.4-25.3 18.4 0ZM38.2-15.8L38.2-15.8 37.65-13.55 43.65-13.55 43.1-15.8Q42.5-18.15 41.9-20.9 41.3-23.65 40.7-26.1L40.7-26.1 40.5-26.1Q39.95-23.6 39.37-20.88 38.8-18.15 38.2-15.8ZM34.5 0L25.7 0 35.6-32.5 46-32.5 55.9 0 46.8 0 45.2-6.9 36.1-6.9 34.5 0ZM69.3 0.6L69.3 0.6Q66.2 0.6 62.92-0.53 59.65-1.65 57-4.05L57-4.05 61.9-9.95Q63.65-8.55 65.67-7.68 67.7-6.8 69.5-6.8L69.5-6.8Q71.45-6.8 72.32-7.4 73.2-8 73.2-9.1L73.2-9.1Q73.2-9.7 72.9-10.1 72.6-10.5 72.02-10.85 71.45-11.2 70.65-11.53 69.85-11.85 68.8-12.25L68.8-12.25 64.75-13.95Q63.45-14.45 62.25-15.28 61.05-16.1 60.15-17.23 59.25-18.35 58.72-19.8 58.2-21.25 58.2-23L58.2-23Q58.2-25.1 59.1-26.93 60-28.75 61.6-30.13 63.2-31.5 65.42-32.3 67.65-33.1 70.3-33.1L70.3-33.1Q73.1-33.1 75.97-32.05 78.85-31 81.1-28.75L81.1-28.75 76.8-23.35Q75.15-24.5 73.62-25.1 72.1-25.7 70.3-25.7L70.3-25.7Q68.7-25.7 67.8-25.15 66.9-24.6 66.9-23.5L66.9-23.5Q66.9-22.35 68.17-21.73 69.45-21.1 71.7-20.25L71.7-20.25 75.65-18.7Q78.7-17.5 80.35-15.35 82-13.2 82-9.8L82-9.8Q82-7.75 81.15-5.85 80.3-3.95 78.67-2.53 77.05-1.1 74.7-0.25 72.35 0.6 69.3 0.6ZM95.79 0L87.19 0 87.19-32.5 95.79-32.5 95.79-20.4 95.99-20.4 104.19-32.5 113.59-32.5 103.89-19.3 115.49 0 106.09 0 98.89-12.5 95.79-8.1 95.79 0ZM140.59 0L116.59 0 116.59-5.2 129.89-25.3 117.89-25.3 117.89-32.5 140.49-32.5 140.49-27.3 127.19-7.2 140.59-7.2 140.59 0ZM158.39 0.6L158.39 0.6Q154.99 0.6 152.21-0.55 149.44-1.7 147.46-3.88 145.49-6.05 144.39-9.22 143.29-12.4 143.29-16.4L143.29-16.4Q143.29-20.4 144.39-23.53 145.49-26.65 147.46-28.78 149.44-30.9 152.21-32 154.99-33.1 158.39-33.1L158.39-33.1Q161.74-33.1 164.54-32 167.34-30.9 169.31-28.75 171.29-26.6 172.39-23.5 173.49-20.4 173.49-16.4L173.49-16.4Q173.49-12.4 172.39-9.22 171.29-6.05 169.31-3.88 167.34-1.7 164.54-0.55 161.74 0.6 158.39 0.6ZM158.39-6.8L158.39-6.8Q161.34-6.8 163.01-9.38 164.69-11.95 164.69-16.4L164.69-16.4Q164.69-20.85 163.01-23.28 161.34-25.7 158.39-25.7L158.39-25.7Q155.44-25.7 153.76-23.28 152.09-20.85 152.09-16.4L152.09-16.4Q152.09-11.95 153.76-9.38 155.44-6.8 158.39-6.8Z" opacity="1" transform="matrix(1,0,0,1,0,0)" fill="#ffffff" class="undefined-text-0" data-fill-palette-color="primary" id="text-0"></path></svg></g></svg></g><g transform="matrix(1,0,0,1,0,95.62209326653512)"><svg viewBox="0 0 395.52000000000004 16.01009057363301" height="16.01009057363301" width="395.52000000000004"><g transform="matrix(1,0,0,1,0,0)"><svg width="395.52000000000004" viewBox="3.4000000953674316 -35.599998474121094 894.22998046875 36.19999694824219" height="16.01009057363301" data-palette-color="#493a61"><path d="M9.8 0L3.4 0 3.4-35 11-35 22.15-12.8 33.15-35 40.75-35 40.75 0 34.35 0 34.35-24.15 24.6-5 19.55-5 9.8-24.15 9.8 0ZM52 0L45.3 0 58.1-35 65.3-35 78.1 0 71.3 0 68.5-8.1 54.85-8.1 52 0ZM61.65-27.65L56.6-13.1 66.75-13.1 61.65-27.65ZM89 0L82.6 0 82.6-35 89-35 105.45-10.35 105.45-35 111.85-35 111.85 0 105.45 0 89-24.6 89 0ZM123.09 0L116.39 0 129.19-35 136.39-35 149.19 0 142.39 0 139.59-8.1 125.94-8.1 123.09 0ZM132.74-27.65L127.69-13.1 137.84-13.1 132.74-27.65ZM166.99 0.6L166.99 0.6Q162.04 0.6 158.34-1.65 154.64-3.9 152.59-7.93 150.54-11.95 150.54-17.3L150.54-17.3Q150.54-22.7 152.67-26.83 154.79-30.95 158.72-33.27 162.64-35.6 168.04-35.6L168.04-35.6Q174.19-35.6 178.24-32.65 182.29-29.7 183.49-24.5L183.49-24.5 176.34-24.5Q175.54-26.95 173.44-28.33 171.34-29.7 168.04-29.7L168.04-29.7Q162.79-29.7 159.94-26.38 157.09-23.05 157.09-17.25L157.09-17.25Q157.09-11.45 159.92-8.28 162.74-5.1 167.59-5.1L167.59-5.1Q172.34-5.1 174.77-7.68 177.19-10.25 177.69-14.45L177.69-14.45 168.84-14.45 168.84-19.25 184.14-19.25 184.14 0 178.24 0 177.74-4.6Q176.04-2.1 173.49-0.75 170.94 0.6 166.99 0.6ZM213.19 0L190.34 0 190.34-35 213.19-35 213.19-29.85 196.74-29.85 196.74-20.25 211.69-20.25 211.69-15.25 196.74-15.25 196.74-5.15 213.19-5.15 213.19 0ZM246.58 0L240.18 0 240.18-12.45 228.43-35 235.68-35 243.43-18.85 251.13-35 258.28-35 246.58-12.45 246.58 0ZM276.53 0.6L276.53 0.6Q271.28 0.6 267.36-1.7 263.43-4 261.21-8.08 258.98-12.15 258.98-17.5L258.98-17.5Q258.98-22.85 261.21-26.93 263.43-31 267.36-33.3 271.28-35.6 276.53-35.6L276.53-35.6Q281.73-35.6 285.68-33.3 289.63-31 291.83-26.93 294.03-22.85 294.03-17.5L294.03-17.5Q294.03-12.15 291.83-8.08 289.63-4 285.68-1.7 281.73 0.6 276.53 0.6ZM276.53-5.15L276.53-5.15Q281.53-5.15 284.51-8.45 287.48-11.75 287.48-17.5L287.48-17.5Q287.48-23.25 284.51-26.55 281.53-29.85 276.53-29.85L276.53-29.85Q271.53-29.85 268.53-26.55 265.53-23.25 265.53-17.5L265.53-17.5Q265.53-11.75 268.53-8.45 271.53-5.15 276.53-5.15ZM313.18 0.6L313.18 0.6Q309.33 0.6 306.23-0.93 303.13-2.45 301.3-5.55 299.48-8.65 299.48-13.4L299.48-13.4 299.48-35 305.88-35 305.88-13.35Q305.88-9.25 307.85-7.25 309.83-5.25 313.33-5.25L313.33-5.25Q316.78-5.25 318.78-7.25 320.78-9.25 320.78-13.35L320.78-13.35 320.78-35 327.18-35 327.18-13.4Q327.18-8.65 325.28-5.55 323.38-2.45 320.2-0.93 317.03 0.6 313.18 0.6ZM340.13 0L333.73 0 333.73-35 346.58-35Q350.78-35 353.5-33.58 356.23-32.15 357.58-29.73 358.93-27.3 358.93-24.35L358.93-24.35Q358.93-21.15 357.25-18.5 355.58-15.85 352.03-14.65L352.03-14.65 359.28 0 351.93 0 345.43-13.8 340.13-13.8 340.13 0ZM340.13-29.65L340.13-18.5 346.18-18.5Q349.38-18.5 350.88-20.05 352.38-21.6 352.38-24.15L352.38-24.15Q352.38-26.65 350.9-28.15 349.43-29.65 346.13-29.65L346.13-29.65 340.13-29.65ZM383.17 0L376.77 0 376.77-35 389.72-35Q393.92-35 396.67-33.6 399.42-32.2 400.77-29.75 402.12-27.3 402.12-24.25L402.12-24.25Q402.12-21.35 400.82-18.93 399.52-16.5 396.77-15.03 394.02-13.55 389.72-13.55L389.72-13.55 383.17-13.55 383.17 0ZM383.17-29.8L383.17-18.75 389.32-18.75Q392.67-18.75 394.15-20.23 395.62-21.7 395.62-24.25L395.62-24.25Q395.62-26.85 394.15-28.33 392.67-29.8 389.32-29.8L389.32-29.8 383.17-29.8ZM413.52 0L407.12 0 407.12-35 419.97-35Q424.17-35 426.89-33.58 429.62-32.15 430.97-29.73 432.32-27.3 432.32-24.35L432.32-24.35Q432.32-21.15 430.64-18.5 428.97-15.85 425.42-14.65L425.42-14.65 432.67 0 425.32 0 418.82-13.8 413.52-13.8 413.52 0ZM413.52-29.65L413.52-18.5 419.57-18.5Q422.77-18.5 424.27-20.05 425.77-21.6 425.77-24.15L425.77-24.15Q425.77-26.65 424.29-28.15 422.82-29.65 419.52-29.65L419.52-29.65 413.52-29.65ZM454.67 0.6L454.67 0.6Q449.42 0.6 445.49-1.7 441.57-4 439.34-8.08 437.12-12.15 437.12-17.5L437.12-17.5Q437.12-22.85 439.34-26.93 441.57-31 445.49-33.3 449.42-35.6 454.67-35.6L454.67-35.6Q459.87-35.6 463.82-33.3 467.77-31 469.97-26.93 472.17-22.85 472.17-17.5L472.17-17.5Q472.17-12.15 469.97-8.08 467.77-4 463.82-1.7 459.87 0.6 454.67 0.6ZM454.67-5.15L454.67-5.15Q459.67-5.15 462.64-8.45 465.62-11.75 465.62-17.5L465.62-17.5Q465.62-23.25 462.64-26.55 459.67-29.85 454.67-29.85L454.67-29.85Q449.67-29.85 446.67-26.55 443.67-23.25 443.67-17.5L443.67-17.5Q443.67-11.75 446.67-8.45 449.67-5.15 454.67-5.15ZM486.96 0.6L486.96 0.6Q481.86 0.6 478.79-2.27 475.71-5.15 475.71-10.45L475.71-10.45 482.11-10.45Q482.16-8 483.26-6.55 484.36-5.1 486.81-5.1L486.81-5.1Q489.11-5.1 490.16-6.48 491.21-7.85 491.21-10.1L491.21-10.1 491.21-35 497.61-35 497.61-10.1Q497.61-4.95 494.74-2.18 491.86 0.6 486.96 0.6ZM527.26 0L504.41 0 504.41-35 527.26-35 527.26-29.85 510.81-29.85 510.81-20.25 525.76-20.25 525.76-15.25 510.81-15.25 510.81-5.15 527.26-5.15 527.26 0ZM549.16 0.6L549.16 0.6Q543.86 0.6 540.06-1.68 536.26-3.95 534.21-8.03 532.16-12.1 532.16-17.45L532.16-17.45Q532.16-22.8 534.21-26.9 536.26-31 540.06-33.3 543.86-35.6 549.16-35.6L549.16-35.6Q555.46-35.6 559.48-32.48 563.51-29.35 564.51-23.7L564.51-23.7 557.46-23.7Q556.81-26.55 554.68-28.18 552.56-29.8 549.06-29.8L549.06-29.8Q544.21-29.8 541.46-26.5 538.71-23.2 538.71-17.45L538.71-17.45Q538.71-11.7 541.46-8.43 544.21-5.15 549.06-5.15L549.06-5.15Q552.56-5.15 554.68-6.68 556.81-8.2 557.46-10.9L557.46-10.9 564.51-10.9Q563.51-5.5 559.48-2.45 555.46 0.6 549.16 0.6ZM584.25 0L577.85 0 577.85-29.85 567.65-29.85 567.65-35 594.5-35 594.5-29.85 584.25-29.85 584.25 0ZM610.75 0.6L610.75 0.6Q606.9 0.6 603.95-0.73 601-2.05 599.3-4.53 597.6-7 597.55-10.55L597.55-10.55 604.3-10.55Q604.4-8.1 606.08-6.43 607.75-4.75 610.7-4.75L610.7-4.75Q613.25-4.75 614.75-5.98 616.25-7.2 616.25-9.25L616.25-9.25Q616.25-11.4 614.93-12.6 613.6-13.8 611.4-14.55 609.2-15.3 606.7-16.15L606.7-16.15Q602.65-17.55 600.53-19.75 598.4-21.95 598.4-25.6L598.4-25.6Q598.35-28.7 599.88-30.93 601.4-33.15 604.05-34.38 606.7-35.6 610.15-35.6L610.15-35.6Q613.65-35.6 616.33-34.35 619-33.1 620.53-30.85 622.05-28.6 622.15-25.5L622.15-25.5 615.3-25.5Q615.25-27.35 613.88-28.78 612.5-30.2 610.05-30.2L610.05-30.2Q607.95-30.25 606.53-29.18 605.1-28.1 605.1-26.05L605.1-26.05Q605.1-24.3 606.2-23.28 607.3-22.25 609.2-21.55 611.1-20.85 613.55-20.05L613.55-20.05Q616.15-19.15 618.3-17.95 620.45-16.75 621.75-14.78 623.05-12.8 623.05-9.7L623.05-9.7Q623.05-6.95 621.65-4.6 620.25-2.25 617.5-0.83 614.75 0.6 610.75 0.6ZM655.2 0L647.65 0 638.4-35 645.25-35 651.55-7.15 658.95-35 666-35 673.2-7.15 679.5-35 686.4-35 676.9 0 669.3 0 662.35-25.95 655.2 0ZM697.44 0L691.04 0 691.04-35 697.44-35 697.44 0ZM718.79 0L712.39 0 712.39-29.85 702.19-29.85 702.19-35 729.04-35 729.04-29.85 718.79-29.85 718.79 0ZM740.19 0L733.79 0 733.79-35 740.19-35 740.19-20.45 755.89-20.45 755.89-35 762.29-35 762.29 0 755.89 0 755.89-15.25 740.19-15.25 740.19 0ZM803.83 0L780.98 0 780.98-35 803.83-35 803.83-29.85 787.38-29.85 787.38-20.25 802.33-20.25 802.33-15.25 787.38-15.25 787.38-5.15 803.83-5.15 803.83 0ZM814.33 0L807.63 0 820.43-35 827.63-35 840.43 0 833.63 0 830.83-8.1 817.18-8.1 814.33 0ZM823.98-27.65L818.93-13.1 829.08-13.1 823.98-27.65ZM856.88 0.6L856.88 0.6Q853.03 0.6 850.08-0.73 847.13-2.05 845.43-4.53 843.73-7 843.68-10.55L843.68-10.55 850.43-10.55Q850.53-8.1 852.2-6.43 853.88-4.75 856.83-4.75L856.83-4.75Q859.38-4.75 860.88-5.98 862.38-7.2 862.38-9.25L862.38-9.25Q862.38-11.4 861.05-12.6 859.73-13.8 857.53-14.55 855.33-15.3 852.83-16.15L852.83-16.15Q848.78-17.55 846.65-19.75 844.53-21.95 844.53-25.6L844.53-25.6Q844.48-28.7 846-30.93 847.53-33.15 850.18-34.38 852.83-35.6 856.28-35.6L856.28-35.6Q859.78-35.6 862.45-34.35 865.13-33.1 866.65-30.85 868.18-28.6 868.28-25.5L868.28-25.5 861.43-25.5Q861.38-27.35 860-28.78 858.63-30.2 856.18-30.2L856.18-30.2Q854.08-30.25 852.65-29.18 851.23-28.1 851.23-26.05L851.23-26.05Q851.23-24.3 852.33-23.28 853.43-22.25 855.33-21.55 857.23-20.85 859.68-20.05L859.68-20.05Q862.28-19.15 864.43-17.95 866.58-16.75 867.88-14.78 869.18-12.8 869.18-9.7L869.18-9.7Q869.18-6.95 867.78-4.6 866.38-2.25 863.63-0.83 860.88 0.6 856.88 0.6ZM897.63 0L874.78 0 874.78-35 897.63-35 897.63-29.85 881.18-29.85 881.18-20.25 896.13-20.25 896.13-15.25 881.18-15.25 881.18-5.15 897.63-5.15 897.63 0Z" opacity="1" transform="matrix(1,0,0,1,0,0)" fill="#ffffff" class="undefined-text-1" data-fill-palette-color="secondary" id="text-1"></path></svg></g></svg></g></svg></g></svg></g><g transform="matrix(1,0,0,1,120.62457809519191,0)"><svg viewBox="0 0 154.27084380961622 154.27567806711235" height="154.27567806711235" width="154.27084380961622"><g><svg xmlns="http://www.w3.org/2000/svg" xmlns:xlink="http://www.w3.org/1999/xlink" version="1.1" x="0" y="0" viewBox="18.350997924804688 18.347999572753906 63.30200958251953 63.303993225097656" enable-background="new 0 0 100 100" xml:space="preserve" height="154.27567806711235" width="154.27084380961622" class="icon-icon-0" data-fill-palette-color="accent" id="icon-0"><g fill="#8b3c7f" data-fill-palette-color="accent"><path fill="#ffffff" d="M80.951 48.597c-4.329-3.261-9.009-4.911-13.907-4.911-0.107 0-0.213 0-0.32 0.002-0.104-0.002-0.212-0.002-0.318-0.002-0.431 0-0.857 0.029-1.283 0.054 0.399-0.354 0.792-0.717 1.168-1.103 3.598-3.496 5.814-8.047 6.587-13.531 0.078-0.548-0.105-1.098-0.496-1.487-0.391-0.39-0.941-0.573-1.488-0.497-5.482 0.773-10.035 2.99-13.529 6.589-0.384 0.373-0.744 0.764-1.097 1.161 0.032-0.53 0.054-1.062 0.046-1.597 0.073-5.016-1.579-9.801-4.91-14.227-0.331-0.44-0.851-0.7-1.401-0.7-0.552 0-1.072 0.26-1.404 0.7-3.33 4.425-4.981 9.211-4.909 14.227-0.008 0.535 0.014 1.066 0.045 1.597-0.352-0.396-0.713-0.788-1.097-1.161-3.493-3.599-8.045-5.816-13.529-6.589-0.549-0.076-1.098 0.107-1.487 0.497-0.39 0.391-0.574 0.941-0.498 1.487 0.774 5.484 2.99 10.036 6.588 13.531 0.375 0.386 0.769 0.748 1.168 1.103-0.427-0.024-0.854-0.054-1.284-0.054-0.107 0-0.213 0-0.319 0.002-0.106-0.002-0.212-0.002-0.321-0.002-4.898 0-9.577 1.65-13.905 4.911-0.44 0.332-0.7 0.851-0.7 1.402 0 0.553 0.259 1.071 0.7 1.403 4.329 3.26 9.008 4.91 13.908 4.91 0.106 0 0.212 0 0.318-0.002 0.106 0.002 0.223-0.006 0.318 0.002 0.432 0 0.859-0.029 1.288-0.053-0.399 0.354-0.793 0.717-1.168 1.104-3.599 3.494-5.816 8.047-6.59 13.529-0.077 0.547 0.107 1.096 0.498 1.486 0.331 0.332 0.779 0.516 1.242 0.516 0.081 0 0.163-0.006 0.246-0.018 5.484-0.773 10.036-2.99 13.529-6.588 0.384-0.373 0.745-0.766 1.097-1.162-0.031 0.531-0.053 1.062-0.045 1.598-0.073 5.016 1.579 9.801 4.909 14.227 0.332 0.441 0.853 0.701 1.404 0.701 0.551 0 1.07-0.26 1.402-0.701 3.33-4.426 4.982-9.211 4.909-14.227 0.008-0.535-0.014-1.066-0.046-1.596 0.353 0.396 0.712 0.789 1.097 1.16 3.494 3.598 8.046 5.814 13.529 6.588 0.082 0.012 0.165 0.018 0.246 0.018 0.461 0 0.91-0.184 1.242-0.516 0.391-0.391 0.574-0.939 0.496-1.486-0.772-5.484-2.99-10.037-6.588-13.529-0.375-0.387-0.77-0.75-1.169-1.104 0.428 0.023 0.855 0.053 1.286 0.053 0.107 0 0.213 0 0.317-0.002 0.106 0.002 0.213 0.002 0.318 0.002 0.001 0 0 0 0.001 0 4.899 0 9.579-1.65 13.908-4.91 0.44-0.332 0.7-0.85 0.7-1.403C81.651 49.448 81.392 48.929 80.951 48.597zM48.784 49.509l1.217-1.215 1.214 1.215-1.214 1.215L48.784 49.509zM59.828 36.215c0.013-0.014 0.026-0.027 0.039-0.04 2.41-2.489 5.449-4.198 9.058-5.099-0.901 3.607-2.61 6.646-5.099 9.057-0.014 0.012-0.027 0.027-0.04 0.04-2.411 2.489-5.449 4.198-9.057 5.099C55.63 41.665 57.339 38.624 59.828 36.215zM47.2 33.247c-0.054-3.464 0.886-6.822 2.801-10.009 1.914 3.187 2.854 6.545 2.799 10.008 0 0.02 0 0.039 0 0.058 0.056 3.463-0.885 6.82-2.799 10.008-1.915-3.188-2.854-6.544-2.801-10.009C47.2 33.285 47.2 33.266 47.2 33.247zM31.077 31.076c3.608 0.9 6.647 2.609 9.056 5.099 0.014 0.013 0.027 0.026 0.04 0.04 2.489 2.409 4.199 5.448 5.098 9.057-3.606-0.901-6.646-2.61-9.057-5.101-0.013-0.013-0.027-0.026-0.039-0.039C33.686 37.722 31.977 34.684 31.077 31.076zM33.303 52.799c-0.009 0-0.018 0-0.027 0s-0.019 0-0.029 0c-0.096 0.002-0.192 0.004-0.289 0.004-3.361 0-6.62-0.941-9.72-2.803 3.099-1.861 6.358-2.801 9.717-2.801 0.098 0 0.195 0 0.292 0.002 0.019 0.001 0.038 0.001 0.056 0 0.098-0.002 0.195-0.002 0.292-0.002 3.359 0 6.619 0.939 9.717 2.801-3.099 1.862-6.359 2.803-9.719 2.803C33.496 52.803 33.399 52.801 33.303 52.799zM40.174 63.785c-0.014 0.014-0.027 0.025-0.041 0.039-2.409 2.488-5.448 4.197-9.056 5.1 0.899-3.607 2.608-6.646 5.098-9.059 0.013-0.012 0.026-0.025 0.041-0.039 2.409-2.488 5.448-4.197 9.056-5.098C44.371 58.336 42.662 61.375 40.174 63.785zM52.8 66.752c0.056 3.465-0.885 6.822-2.799 10.01-1.915-3.188-2.854-6.545-2.801-10.01 0-0.02 0-0.037 0-0.055-0.054-3.465 0.886-6.822 2.801-10.01 1.914 3.188 2.854 6.545 2.799 10.01C52.8 66.715 52.8 66.732 52.8 66.752zM68.924 68.924c-3.607-0.902-6.646-2.611-9.058-5.098-0.013-0.014-0.025-0.027-0.038-0.041-2.489-2.41-4.198-5.449-5.099-9.057 3.607 0.9 6.646 2.609 9.056 5.098 0.014 0.014 0.026 0.027 0.04 0.039C66.314 62.277 68.022 65.314 68.924 68.924zM67.042 52.803c-0.096 0-0.192-0.002-0.289-0.004-0.01 0-0.02 0-0.029 0-0.009 0-0.018 0-0.028 0-0.096 0.002-0.192 0.004-0.289 0.004-3.361 0-6.62-0.941-9.718-2.803 3.098-1.861 6.356-2.801 9.717-2.801 0.097 0 0.194 0 0.29 0.002 0.02 0.001 0.039 0.001 0.058 0 0.097-0.002 0.194-0.002 0.291-0.002 3.36 0 6.62 0.939 9.718 2.801C73.664 51.861 70.404 52.803 67.042 52.803z" data-fill-palette-color="accent"></path><circle fill="#ffffff" cx="66.725" cy="50" r="2.3" data-fill-palette-color="accent"></circle><circle fill="#ffffff" cx="33.276" cy="50" r="2.3" data-fill-palette-color="accent"></circle><circle fill="#ffffff" cx="50" cy="66.725" r="2.3" data-fill-palette-color="accent"></circle><circle fill="#ffffff" cx="50" cy="33.275" r="2.3" data-fill-palette-color="accent"></circle><circle fill="#ffffff" cx="61.827" cy="61.825" r="2.3" data-fill-palette-color="accent"></circle><circle fill="#ffffff" cx="38.174" cy="38.174" r="2.3" data-fill-palette-color="accent"></circle><circle fill="#ffffff" cx="38.174" cy="61.825" r="2.3" data-fill-palette-color="accent"></circle><circle fill="#ffffff" cx="61.827" cy="38.174" r="2.3" data-fill-palette-color="accent"></circle></g></svg></g></svg></g><g></g></svg></g></svg><rect width="344.06289104136505" height="247.2" fill="none" stroke="none" visibility="hidden"></rect></g></svg></g></svg>